<svg width="12" height="7" viewBox="0 0 12 7" fill="none" xmlns="http://www.w3.org/2000/svg">
<path d="M0 0.724249C0.0532364 0.510775 0.143073 0.323984 0.319418 0.180556C0.618873 -0.0562676 1.05142 -0.0629387 1.35087 0.17722C1.40744 0.223918 1.464 0.273951 1.51724 0.32732C2.97458 1.78829 4.43526 3.25259 5.8926 4.71356C5.92587 4.74691 5.95249 4.78694 6.03235 4.84698C6.05564 4.80695 6.06895 4.75692 6.10222 4.72357C7.57287 3.24592 9.04686 1.77161 10.5175 0.293964C10.777 0.0337921 11.0765 -0.0662743 11.4358 0.0471342C11.9649 0.217247 12.1745 0.897698 11.8351 1.33799C11.7985 1.38802 11.7553 1.43472 11.712 1.47808C10.0217 3.17254 8.33149 4.87033 6.64124 6.56479C6.32515 6.88166 5.93253 6.94504 5.57651 6.7349C5.49 6.68486 5.41347 6.61148 5.3436 6.54144C3.69327 4.89034 2.0496 3.23925 0.399273 1.59149C0.216273 1.40804 0.0532364 1.22125 0 0.957738C0 0.88102 0 0.804303 0 0.724249Z" fill="#9492A0"/>
</svg>
